<svg width="1512" height="757" viewBox="0 0 1512 757" fill="none" xmlns="http://www.w3.org/2000/svg">
<g opacity="0.75">
<g clip-path="url(#clip0_115_2070)">
<path d="M1612.92 802.578C1592.79 779.815 1568.16 756.527 1538.15 756.527C1508.13 756.527 1483.46 779.815 1463.36 802.578L1462.44 799.108C1482.79 776.109 1507.7 752.584 1538.15 752.584C1568.59 752.584 1593.49 776.109 1613.84 799.108L1612.92 802.578Z" fill="#00D2FE" fill-opacity="0.66"/>
<path d="M1223.29 802.578C1203.16 779.815 1178.53 756.527 1148.52 756.527C1118.51 756.527 1093.84 779.815 1073.73 802.578L1072.82 799.108C1093.16 776.109 1118.08 752.584 1148.52 752.584C1178.96 752.584 1203.86 776.109 1224.21 799.108L1223.29 802.578Z" fill="#00D2FE" fill-opacity="0.66"/>
<path d="M1635.06 802.525C1605.99 766.909 1575.91 730.085 1538.15 730.085C1500.38 730.085 1470.3 766.883 1441.22 802.525L1440.25 799.134C1469.5 763.256 1499.84 726.142 1538.17 726.142C1576.5 726.142 1606.77 763.256 1636.09 799.134L1635.06 802.525Z" fill="#00D2FE" fill-opacity="0.66"/>
<path d="M1245.43 802.525C1216.35 766.909 1186.29 730.085 1148.52 730.085C1110.75 730.085 1080.68 766.883 1051.59 802.525L1050.63 799.134C1079.87 763.256 1110.22 726.142 1148.54 726.142C1186.87 726.142 1217.13 763.256 1246.46 799.134L1245.43 802.525Z" fill="#00D2FE" fill-opacity="0.66"/>
<path d="M1657.25 802.578C1649.77 794.114 1642.3 784.941 1635.06 776.083C1605.99 740.414 1575.96 703.616 1538.15 703.616C1500.33 703.616 1470.3 740.414 1441.17 776.083C1433.94 784.941 1426.47 794.114 1418.98 802.578L1418.06 799.108C1425.51 790.671 1432.98 781.524 1440.2 772.692C1469.45 736.813 1499.79 699.699 1538.12 699.699C1576.45 699.699 1606.71 736.813 1636.04 772.692C1643.25 781.55 1650.71 790.671 1658.17 799.108L1657.25 802.578Z" fill="#00D2FE" fill-opacity="0.66"/>
<path d="M1267.62 802.578C1260.15 794.114 1252.67 784.941 1245.43 776.083C1216.36 740.414 1186.29 703.616 1148.52 703.616C1110.75 703.616 1080.68 740.414 1051.59 776.056C1044.37 784.914 1036.89 794.088 1029.4 802.552L1028.49 799.082C1035.94 790.645 1043.4 781.497 1050.63 772.666C1079.87 736.787 1110.22 699.673 1148.54 699.673C1186.87 699.673 1217.14 736.787 1246.46 772.666C1253.67 781.497 1261.14 790.645 1268.59 799.082L1267.62 802.578Z" fill="#00D2FE" fill-opacity="0.66"/>
<path d="M1684.23 802.683C1666.97 788.726 1650.75 768.854 1635.07 749.64C1605.99 714.13 1575.96 677.331 1538.15 677.331C1500.33 677.331 1470.3 714.13 1441.17 749.64C1425.49 768.854 1409.26 788.726 1391.99 802.683L1391.29 799.003C1408.47 785.098 1424.64 765.385 1440.25 746.249C1469.5 710.345 1499.84 673.257 1538.17 673.257C1576.5 673.257 1606.76 710.371 1636.09 746.249C1651.71 765.385 1667.88 785.177 1684.99 799.003L1684.23 802.683Z" fill="#00D2FE" fill-opacity="0.66"/>
<path d="M1294.62 802.683C1277.34 788.726 1261.13 768.855 1245.43 749.64C1216.36 714.13 1186.29 677.331 1148.52 677.331C1110.75 677.331 1080.68 714.13 1051.59 749.772C1036.01 768.723 1019.9 788.463 1002.75 802.394L1002.06 798.74C1019.06 784.915 1035.12 765.254 1050.63 746.171C1079.87 710.266 1110.22 673.178 1148.54 673.178C1186.87 673.178 1217.14 710.292 1246.46 746.171C1262.08 765.306 1278.25 785.099 1295.36 798.924L1294.62 802.683Z" fill="#00D2FE" fill-opacity="0.66"/>
<path d="M1343.33 796.191C1305.02 796.191 1274.73 759.077 1245.41 723.198C1216.34 687.582 1186.26 650.731 1148.49 650.731C1110.72 650.731 1080.65 687.53 1051.57 723.198C1036.01 742.281 1019.9 762.02 1002.75 775.951L1002.06 772.271C1019.06 758.472 1035.12 738.811 1050.63 719.702C1079.87 683.797 1110.22 646.683 1148.54 646.683C1186.87 646.683 1217.14 683.797 1246.46 719.702C1275.53 755.318 1305.6 792.143 1343.38 792.143C1381.16 792.143 1411.22 755.344 1440.3 719.702C1469.55 683.797 1499.89 646.683 1538.22 646.683V650.626C1500.44 650.626 1470.38 687.424 1441.3 723.093C1411.92 759.077 1381.63 796.191 1343.33 796.191Z" fill="#00D2FE" fill-opacity="0.66"/>
<path d="M1343.33 769.748C1305.02 769.748 1274.73 732.634 1245.41 696.756C1216.34 661.114 1186.26 624.289 1148.49 624.289C1110.72 624.289 1080.65 661.087 1051.57 696.756C1036.01 715.838 1019.9 735.578 1002.75 749.509L1002.06 745.829C1019.06 732.03 1035.12 712.369 1050.63 693.26C1079.87 657.355 1110.22 620.241 1148.54 620.241C1186.87 620.241 1217.14 657.355 1246.46 693.26C1275.53 728.875 1305.6 765.7 1343.38 765.7C1381.16 765.7 1411.22 728.902 1440.3 693.26C1469.55 657.355 1499.89 620.241 1538.22 620.241V624.183C1500.44 624.183 1470.38 660.982 1441.3 696.65C1411.92 732.529 1381.63 769.748 1343.33 769.748Z" fill="#00D2FE" fill-opacity="0.66"/>
<path d="M1343.33 743.306C1305.02 743.306 1274.73 706.192 1245.41 670.313C1216.34 634.671 1186.26 597.846 1148.49 597.846C1110.72 597.846 1080.65 634.645 1051.57 670.287C1036.01 689.396 1019.9 709.136 1002.75 723.066L1002.06 719.387C1019.06 705.561 1035.12 685.926 1050.63 666.817C1079.87 630.938 1110.22 593.824 1148.54 593.824C1186.87 593.824 1217.14 630.938 1246.46 666.817C1275.53 702.459 1305.6 739.284 1343.38 739.284C1381.16 739.284 1411.22 702.485 1440.3 666.817C1469.55 630.938 1499.89 593.824 1538.22 593.824V597.767C1500.44 597.767 1470.38 634.566 1441.3 670.234C1411.92 706.244 1381.63 743.306 1343.33 743.306Z" fill="#00D2FE" fill-opacity="0.66"/>
<path d="M1343.33 716.758C1305.02 716.758 1274.73 679.644 1245.41 643.739C1216.34 608.123 1186.26 571.299 1148.49 571.299C1110.72 571.299 1080.65 608.097 1051.57 643.739C1036.01 662.927 1019.9 682.588 1002.75 696.598L1002.06 692.944C1019.06 679.118 1035.12 659.457 1050.63 640.375C1079.87 604.496 1110.22 567.382 1148.54 567.382C1186.87 567.382 1217.14 604.496 1246.46 640.375C1275.53 675.991 1305.6 712.842 1343.38 712.842C1381.16 712.842 1411.22 676.043 1440.3 640.375C1469.55 604.496 1499.89 567.382 1538.22 567.382V571.325C1500.44 571.325 1470.38 608.123 1441.3 643.765C1411.92 679.749 1381.63 716.758 1343.33 716.758Z" fill="#00D2FE" fill-opacity="0.66"/>
<path d="M1343.33 690.473C1305.02 690.473 1274.73 653.359 1245.41 617.454C1216.34 581.838 1186.26 545.014 1148.49 545.014C1110.72 545.014 1080.65 581.812 1051.57 617.454C1036.01 636.484 1019.9 656.303 1002.75 670.155L1002.06 666.502C1019.06 652.676 1035.12 633.015 1050.63 613.932C1079.87 578.054 1110.22 540.939 1148.54 540.939C1186.87 540.939 1217.14 578.054 1246.46 613.932C1275.53 649.548 1305.6 686.399 1343.38 686.399C1381.16 686.399 1411.22 649.601 1440.3 613.932C1469.55 578.054 1499.89 540.939 1538.22 540.939V544.882C1500.44 544.882 1470.38 581.681 1441.3 617.323C1411.92 653.307 1381.63 690.473 1343.33 690.473Z" fill="#00D2FE" fill-opacity="0.66"/>
<path d="M1343.33 663.952C1305.02 663.952 1274.73 626.838 1245.41 590.96C1216.34 555.344 1186.26 518.493 1148.49 518.493C1110.72 518.493 1080.65 555.291 1051.57 590.96C1036.01 610.042 1019.9 629.782 1002.75 643.713L1002.06 640.059C1019.06 626.234 1035.12 606.573 1050.63 587.49C1079.87 551.585 1110.22 514.471 1148.54 514.471C1186.87 514.471 1217.14 551.585 1246.46 587.49C1275.53 623.106 1305.6 659.931 1343.38 659.931C1381.16 659.931 1411.22 623.132 1440.3 587.49C1469.55 551.585 1499.89 514.471 1538.22 514.471V518.414C1500.44 518.414 1470.38 555.212 1441.3 590.881C1411.92 626.838 1381.63 663.952 1343.33 663.952Z" fill="#00D2FE" fill-opacity="0.66"/>
<path d="M1343.33 637.51C1305.02 637.51 1274.73 600.396 1245.41 564.517C1216.34 528.901 1186.26 492.05 1148.49 492.05C1110.72 492.05 1080.65 528.849 1051.57 564.517C1036.01 583.6 1019.9 603.34 1002.75 617.27L1002.06 613.591C1019.06 599.791 1035.12 580.13 1050.63 561.021C1079.87 525.116 1110.22 488.002 1148.54 488.002C1186.87 488.002 1217.14 525.116 1246.46 561.021C1275.53 596.637 1305.6 633.462 1343.38 633.462C1381.16 633.462 1411.22 596.663 1440.3 561.021C1469.55 525.116 1499.89 488.002 1538.22 488.002V491.945C1500.44 491.945 1470.38 528.743 1441.3 564.412C1411.92 600.396 1381.63 637.51 1343.33 637.51Z" fill="#00D2FE" fill-opacity="0.66"/>
<path d="M1343.33 611.067C1305.02 611.067 1274.73 573.953 1245.41 538.075C1216.34 502.432 1186.26 465.607 1148.49 465.607C1110.72 465.607 1080.65 502.406 1051.57 538.075C1036.01 557.157 1019.9 576.897 1002.75 590.828L1002.06 587.148C1019.06 573.322 1035.12 553.688 1050.63 534.579C1079.87 498.7 1110.22 461.586 1148.54 461.586C1186.87 461.586 1217.14 498.7 1246.46 534.579C1275.53 570.221 1305.6 607.046 1343.38 607.046C1381.16 607.046 1411.22 570.247 1440.3 534.579C1469.55 498.7 1499.89 461.586 1538.22 461.586V465.529C1500.44 465.529 1470.38 502.327 1441.3 537.996C1411.92 573.953 1381.63 611.067 1343.33 611.067Z" fill="#00D2FE" fill-opacity="0.66"/>
<path d="M1343.33 584.625C1305.02 584.625 1274.73 547.511 1245.41 511.606C1216.34 475.99 1186.26 439.165 1148.49 439.165C1110.72 439.165 1080.68 475.99 1051.59 511.737C1036.01 530.715 1019.9 550.455 1002.75 564.307L1002.06 560.627C1019.06 546.801 1035.12 527.14 1050.63 508.057C1079.87 472.179 1110.22 435.065 1148.54 435.065C1186.87 435.065 1217.14 472.179 1246.46 508.057C1275.53 543.699 1305.6 580.524 1343.38 580.524C1381.16 580.524 1411.22 543.726 1440.3 508.057C1469.55 472.179 1499.89 435.065 1538.22 435.065V439.007C1500.44 439.007 1470.38 475.806 1441.3 511.448C1411.92 547.511 1381.63 584.625 1343.33 584.625Z" fill="#00D2FE" fill-opacity="0.66"/>
<path d="M1343.33 558.182C1305.02 558.182 1274.73 521.068 1245.41 485.163C1216.34 449.547 1186.26 412.723 1148.49 412.723C1110.72 412.723 1080.65 449.521 1051.57 485.163C1036.01 504.246 1019.9 523.986 1002.75 538.022L1002.06 534.368C1019.06 520.543 1035.12 500.882 1050.63 481.799C1079.87 445.92 1110.22 408.806 1148.54 408.806C1186.87 408.806 1217.14 445.92 1246.46 481.799C1275.53 517.415 1305.6 554.266 1343.38 554.266C1381.16 554.266 1411.22 517.467 1440.3 481.799C1469.55 445.92 1499.89 408.806 1538.22 408.806V412.749C1500.44 412.749 1470.38 449.547 1441.3 485.19C1411.92 521.068 1381.63 558.182 1343.33 558.182Z" fill="#00D2FE" fill-opacity="0.66"/>
<path d="M1343.33 531.74C1305.02 531.74 1274.73 494.626 1245.41 458.721C1216.34 423.105 1186.26 386.28 1148.49 386.28C1110.72 386.28 1080.65 423.079 1051.57 458.721C1036.01 477.804 1019.9 497.544 1002.75 511.474L1002.06 507.821C1019.06 493.995 1035.12 474.334 1050.63 455.251C1079.87 419.347 1110.22 382.259 1148.54 382.259C1186.87 382.259 1217.14 419.373 1246.46 455.251C1275.53 490.867 1305.6 527.718 1343.38 527.718C1381.16 527.718 1411.22 490.92 1440.3 455.251C1469.55 419.373 1499.89 382.259 1538.22 382.259V386.201C1500.44 386.201 1470.38 423 1441.3 458.642C1411.92 494.626 1381.63 531.74 1343.33 531.74Z" fill="#00D2FE" fill-opacity="0.66"/>
<path d="M1343.33 505.271C1305.02 505.271 1274.73 468.157 1245.41 432.279C1216.34 396.663 1186.26 359.812 1148.49 359.812C1110.72 359.812 1080.65 396.61 1051.57 432.279C1036.01 451.282 1019.9 471.101 1002.75 485.032L1002.06 481.352C1019.06 467.553 1035.12 447.892 1050.63 428.783C1079.87 392.878 1110.22 355.764 1148.54 355.764C1186.87 355.764 1217.14 392.878 1246.46 428.783C1275.48 464.425 1305.54 501.223 1343.33 501.223C1381.11 501.223 1411.17 464.425 1440.25 428.783C1469.5 392.878 1499.84 355.764 1538.17 355.764V359.706C1500.39 359.706 1470.33 396.505 1441.24 432.173C1411.92 468.157 1381.63 505.271 1343.33 505.271Z" fill="#00D2FE" fill-opacity="0.66"/>
<path d="M1343.33 478.829C1305.02 478.829 1274.73 441.715 1245.41 405.836C1216.34 370.22 1186.26 333.369 1148.49 333.369C1110.72 333.369 1080.65 370.168 1051.57 405.836C1036.01 424.998 1019.9 444.659 1002.75 458.59L1002.06 454.91C1019.06 441.11 1035.12 421.449 1050.63 402.34C1079.87 366.435 1110.22 329.321 1148.54 329.321C1186.87 329.321 1217.14 366.435 1246.46 402.34C1275.48 438.14 1305.54 474.939 1343.33 474.939C1381.11 474.939 1411.17 438.14 1440.25 402.498C1469.5 366.593 1499.84 329.479 1538.17 329.479V333.422C1500.39 333.422 1470.33 370.22 1441.24 405.889C1411.92 441.715 1381.63 478.829 1343.33 478.829Z" fill="#00D2FE" fill-opacity="0.66"/>
<path d="M1343.33 452.386C1305.02 452.386 1274.73 415.272 1245.41 379.368C1216.34 343.752 1186.26 306.927 1148.49 306.927C1110.72 306.927 1080.65 343.725 1051.57 379.368C1036.01 398.477 1019.9 418.216 1002.75 432.147L1002.06 428.467C1019.06 414.642 1035.12 395.007 1050.63 375.898C1079.87 340.019 1110.22 302.905 1148.54 302.905C1186.87 302.905 1217.14 340.019 1246.46 375.898C1275.53 411.54 1305.6 448.365 1343.38 448.365C1381.16 448.365 1411.22 411.566 1440.3 375.898C1469.55 340.019 1499.89 302.905 1538.22 302.905V306.848C1500.44 306.848 1470.38 343.647 1441.3 379.289C1411.92 415.272 1381.63 452.386 1343.33 452.386Z" fill="#00D2FE" fill-opacity="0.66"/>
<path d="M1343.33 425.944C1305.02 425.944 1274.73 388.83 1245.41 352.925C1216.36 317.23 1186.29 280.432 1148.52 280.432C1110.75 280.432 1080.68 317.23 1051.59 352.872C1036.01 372.034 1019.9 391.747 1002.75 405.705L1002.06 402.025C1019.06 388.199 1035.12 368.538 1050.63 349.455C1079.87 313.577 1110.22 276.463 1148.54 276.463C1186.87 276.463 1217.14 313.577 1246.46 349.455C1275.53 385.071 1305.6 421.922 1343.38 421.922C1381.16 421.922 1411.22 385.124 1440.3 349.455C1469.55 313.577 1499.89 276.463 1538.22 276.463V280.432C1500.44 280.432 1470.38 317.23 1441.3 352.872C1411.92 388.83 1381.63 425.944 1343.33 425.944Z" fill="#00D2FE" fill-opacity="0.66"/>
<path d="M1343.33 399.501C1305.02 399.501 1274.73 362.387 1245.41 326.483C1216.36 290.946 1186.29 254.147 1148.52 254.147C1110.75 254.147 1080.68 290.946 1051.59 326.588C1036.01 345.565 1019.9 365.305 1002.75 379.236L1002.06 375.582C1019.06 361.757 1035.12 342.096 1050.63 323.013C1079.87 287.134 1110.22 250.02 1148.54 250.02C1186.87 250.02 1217.14 287.134 1246.46 323.013C1275.53 358.629 1305.6 395.48 1343.38 395.48C1381.16 395.48 1411.22 358.681 1440.3 323.013C1469.55 287.134 1499.89 250.02 1538.22 250.02V254.147C1500.44 254.147 1470.38 290.946 1441.3 326.588C1411.92 362.387 1381.63 399.501 1343.33 399.501Z" fill="#00D2FE" fill-opacity="0.66"/>
<path d="M1343.33 373.033C1305.02 373.033 1274.73 335.945 1245.41 300.04C1216.34 264.424 1186.26 227.573 1148.49 227.573C1110.72 227.573 1080.65 264.372 1051.57 300.04C1036.01 319.123 1019.9 338.863 1002.75 352.793L1002.06 349.14C1019.06 335.314 1035.12 315.653 1050.63 296.57C1079.87 260.666 1110.22 223.552 1148.54 223.552C1186.87 223.552 1217.14 260.666 1246.46 296.57C1275.53 332.186 1305.6 369.011 1343.38 369.011C1381.16 369.011 1411.22 332.213 1440.3 296.57C1469.55 260.666 1499.89 223.552 1538.22 223.552V227.494C1500.44 227.494 1470.38 264.293 1441.3 299.961C1411.92 335.945 1381.63 373.033 1343.33 373.033Z" fill="#00D2FE" fill-opacity="0.66"/>
<path d="M1343.33 346.59C1305.02 346.59 1274.73 309.476 1245.41 273.598C1216.34 237.982 1186.26 201.131 1148.49 201.131C1110.72 201.131 1080.65 237.929 1051.57 273.598C1036.01 292.68 1019.9 312.42 1002.75 326.351L1002.06 322.671C1019.06 308.872 1035.12 289.211 1050.63 270.102C1079.87 234.197 1110.22 197.083 1148.54 197.083C1186.87 197.083 1217.14 234.197 1246.46 270.102C1275.53 305.718 1305.6 342.542 1343.38 342.542C1381.16 342.542 1411.22 305.744 1440.3 270.102C1469.55 234.197 1499.89 197.083 1538.22 197.083V201.025C1500.44 201.025 1470.38 237.824 1441.3 273.492C1411.92 309.476 1381.63 346.59 1343.33 346.59Z" fill="#00D2FE" fill-opacity="0.66"/>
<path d="M1343.33 320.148C1305.02 320.148 1274.73 283.034 1245.41 247.155C1216.34 211.513 1186.26 174.688 1148.49 174.688C1110.72 174.688 1080.65 211.487 1051.57 247.155C1036.01 266.238 1019.9 285.978 1002.75 299.909L1002.06 296.203C1019.06 282.403 1035.12 262.742 1050.63 243.633C1079.87 207.754 1110.22 170.64 1148.54 170.64C1186.87 170.64 1217.14 207.754 1246.46 243.659C1275.53 279.275 1305.6 316.1 1343.38 316.1C1381.16 316.1 1411.22 279.301 1440.3 243.659C1469.55 207.754 1499.89 170.64 1538.22 170.64V174.583C1500.44 174.583 1470.38 211.382 1441.3 247.05C1411.92 283.06 1381.63 320.148 1343.33 320.148Z" fill="#00D2FE" fill-opacity="0.66"/>
<path d="M1343.33 293.705C1305.02 293.705 1274.73 256.591 1245.41 220.687C1216.34 185.071 1186.26 148.246 1148.49 148.246C1110.72 148.246 1080.65 185.044 1051.57 220.687C1036.01 239.796 1019.9 259.535 1002.75 273.466L1002.06 269.918C1019.06 256.092 1035.12 236.457 1050.63 217.348C1079.87 181.47 1110.22 144.356 1148.54 144.356C1186.87 144.356 1217.14 181.47 1246.46 217.348C1275.53 252.99 1305.6 289.815 1343.38 289.815C1381.16 289.815 1411.22 253.017 1440.3 217.348C1469.55 181.47 1499.89 144.356 1538.22 144.356V148.298C1500.44 148.298 1470.38 185.097 1441.3 220.739C1411.92 256.591 1381.63 293.705 1343.33 293.705Z" fill="#00D2FE" fill-opacity="0.66"/>
<path d="M1343.33 267.289C1305.02 267.289 1274.73 230.175 1245.41 194.27C1216.34 158.654 1186.26 121.83 1148.49 121.83C1110.72 121.83 1080.65 158.628 1051.57 194.27C1036.01 213.327 1019.9 233.119 1002.75 246.997L1002.06 243.344C1019.06 229.518 1035.12 209.857 1050.63 190.774C1079.87 154.896 1110.22 117.782 1148.54 117.782C1186.87 117.782 1217.14 154.896 1246.46 190.774C1275.53 226.39 1305.6 263.241 1343.38 263.241C1381.16 263.241 1411.22 226.443 1440.3 190.774C1469.55 154.896 1499.89 117.782 1538.22 117.782V121.724C1500.44 121.724 1470.38 158.523 1441.3 194.165C1411.92 230.149 1381.63 267.289 1343.33 267.289Z" fill="#00D2FE" fill-opacity="0.66"/>
<path d="M1343.33 240.821C1305.02 240.821 1274.73 203.707 1245.41 167.802C1216.34 132.186 1186.26 95.3609 1148.49 95.3609C1110.72 95.3609 1080.65 132.16 1051.57 167.802C1036.01 186.884 1019.9 206.624 1002.75 220.555L1002.06 216.901C1019.06 203.076 1035.12 183.415 1050.63 164.332C1079.87 128.453 1110.22 91.3394 1148.54 91.3394C1186.87 91.3394 1217.14 128.453 1246.46 164.332C1275.53 199.948 1305.6 236.799 1343.38 236.799C1381.16 236.799 1411.22 200 1440.3 164.332C1469.55 128.453 1499.89 91.3394 1538.22 91.3394V95.2821C1500.44 95.2821 1470.38 132.081 1441.3 167.723C1411.92 203.707 1381.63 240.821 1343.33 240.821Z" fill="#00D2FE" fill-opacity="0.66"/>
<path d="M1343.33 214.352C1305.02 214.352 1274.73 177.238 1245.41 141.359C1216.34 105.743 1186.26 68.8922 1148.49 68.8922C1110.72 68.8922 1080.65 105.691 1051.57 141.359C1036.01 160.442 1019.9 180.182 1002.75 194.113L1002.06 190.459C1019.06 176.633 1035.12 156.972 1050.63 137.89C1079.87 101.985 1110.22 64.8706 1148.54 64.8706C1186.87 64.8706 1217.14 101.985 1246.46 137.89C1275.53 173.505 1305.6 210.33 1343.38 210.33C1381.16 210.33 1411.22 173.532 1440.3 137.89C1469.55 101.985 1499.89 64.8706 1538.22 64.8706V68.8133C1500.44 68.8133 1470.38 105.612 1441.3 141.28C1411.92 177.238 1381.63 214.352 1343.33 214.352Z" fill="#00D2FE" fill-opacity="0.66"/>
<path d="M1343.33 187.909C1305.02 187.909 1274.73 150.795 1245.41 114.917C1216.34 79.3009 1186.26 42.4497 1148.49 42.4497C1110.72 42.4497 1080.68 79.3009 1051.59 114.838C1036.01 133.999 1019.9 153.739 1002.75 167.67L1002.06 163.99C1019.06 150.191 1035.12 130.53 1050.63 111.421C1079.87 75.5159 1110.22 38.4019 1148.54 38.4019C1186.87 38.4019 1217.14 75.5159 1246.46 111.421C1275.53 147.037 1305.6 183.862 1343.38 183.862C1381.16 183.862 1411.22 147.063 1440.3 111.421C1469.55 75.5159 1499.89 38.4019 1538.22 38.4019V42.3446C1500.44 42.3446 1470.38 79.1432 1441.3 114.812C1411.92 150.795 1381.63 187.909 1343.33 187.909Z" fill="#00D2FE" fill-opacity="0.66"/>
<path d="M1343.33 161.467C1305.02 161.467 1274.73 124.353 1245.41 88.4744C1216.36 52.8323 1186.29 16.0074 1148.52 16.0074C1110.75 16.0074 1080.68 52.8323 1051.59 88.5532C1036.01 107.557 1019.9 127.297 1002.75 141.123L1002.06 137.443C1019.06 123.643 1035.12 103.982 1050.63 84.8734C1079.92 49.1261 1110.22 12.0647 1148.52 12.0647C1186.82 12.0647 1217.11 49.1787 1246.44 85.0837C1275.51 120.699 1305.57 157.524 1343.35 157.524C1381.13 157.524 1411.19 120.726 1440.28 85.0837C1469.53 49.1787 1499.87 12.0647 1538.2 12.0647V16.0074C1500.42 16.0074 1470.35 52.806 1441.27 88.4744C1411.92 124.353 1381.63 161.467 1343.33 161.467Z" fill="#00D2FE" fill-opacity="0.66"/>
<path d="M1343.33 135.025C1305.02 135.025 1274.73 97.9106 1245.41 62.0056C1216.36 26.3898 1186.29 -10.4351 1148.52 -10.4351C1110.75 -10.4351 1080.68 26.3636 1051.59 62.0056C1036.01 81.1146 1019.9 100.854 1002.75 114.838L1002.06 111.158C1019.06 97.3323 1035.12 77.6976 1050.63 58.5886C1079.87 22.71 1110.22 -14.4041 1148.54 -14.4041C1186.87 -14.4041 1217.14 22.71 1246.46 58.5886C1275.53 94.2307 1305.6 131.056 1343.38 131.056C1381.16 131.056 1411.22 94.257 1440.3 58.5886C1469.55 22.71 1499.89 -14.4041 1538.22 -14.4041V-10.4613C1500.44 -10.4613 1470.38 26.3373 1441.3 61.9794C1411.92 97.9106 1381.63 135.025 1343.33 135.025Z" fill="#00D2FE" fill-opacity="0.66"/>
<path d="M1343.33 108.582C1305.02 108.582 1274.73 71.4683 1245.41 35.5633C1216.36 -0.0524659 1186.29 -36.8774 1148.52 -36.8774C1110.75 -36.8774 1080.68 -0.0524659 1051.59 35.5633C1036.01 54.646 1019.9 74.3859 1002.75 88.3168L1002.06 84.6632C1019.06 70.8374 1035.12 51.1765 1050.63 32.0938C1079.87 -3.78489 1110.22 -40.8989 1148.54 -40.8989C1186.87 -40.8989 1217.14 -3.78489 1246.46 32.0938C1275.53 67.7096 1305.6 104.561 1343.38 104.561C1381.16 104.561 1411.22 67.7621 1440.3 32.0938C1469.55 -3.78489 1499.89 -40.8989 1538.22 -40.8989V-36.9562C1500.44 -36.9562 1470.38 -0.157602 1441.3 35.4845C1411.92 71.4683 1381.63 108.582 1343.33 108.582Z" fill="#00D2FE" fill-opacity="0.66"/>
<path d="M1343.33 82.1398C1305.02 82.1398 1274.73 44.9994 1245.41 9.1208C1229.82 -10.0145 1213.67 -29.728 1196.54 -43.6326L1197.22 -47.3125C1214.51 -33.3553 1230.72 -13.4841 1246.4 5.73007C1275.48 41.2407 1305.54 78.197 1343.33 78.197C1381.11 78.197 1411.17 41.3984 1440.25 5.73007C1455.93 -13.4841 1472.15 -33.3553 1489.49 -47.3125L1490.19 -43.6326C1472.96 -29.728 1456.84 -10.0145 1441.17 9.1208C1411.92 45.0257 1381.63 82.1398 1343.33 82.1398Z" fill="#00D2FE" fill-opacity="0.66"/>
<path d="M1002.75 61.8743L1002.06 58.2207C1019.06 44.3949 1035.12 24.7339 1050.63 5.65123C1066.13 -13.4315 1082.56 -33.3553 1099.8 -47.3125L1100.5 -43.6326C1083.36 -29.728 1067.21 -10.0145 1051.59 9.12081C1035.98 28.2561 1019.9 47.9433 1002.75 61.8743Z" fill="#00D2FE" fill-opacity="0.66"/>
<path d="M1343.33 55.6709C1305.02 55.6709 1274.73 18.5569 1245.41 -17.3218C1238.2 -26.1797 1230.73 -35.3005 1223.27 -43.6065L1224.18 -47.0761C1231.67 -38.6124 1239.15 -29.439 1246.39 -20.5811C1275.48 14.9559 1305.54 51.7545 1343.33 51.7545C1381.11 51.7545 1411.17 14.9559 1440.25 -20.7125C1447.48 -29.5705 1454.95 -38.7438 1462.44 -47.2075L1463.36 -43.7379C1455.89 -35.3005 1448.44 -26.1535 1441.22 -17.4532C1411.92 18.5569 1381.63 55.6709 1343.33 55.6709Z" fill="#00D2FE" fill-opacity="0.66"/>
<path d="M1002.75 35.4318L1002.06 31.752C1019.06 17.9525 1035.12 -1.70851 1050.61 -20.8175C1057.85 -29.6755 1065.33 -38.8488 1072.82 -47.3125L1073.73 -43.8429C1066.27 -35.4055 1058.8 -26.2584 1051.59 -17.5582C1036.01 1.81365 1019.9 21.5009 1002.75 35.4318Z" fill="#00D2FE" fill-opacity="0.66"/>
<path d="M1343.33 29.2284C1305.02 29.2284 1274.73 -7.88566 1245.41 -43.7643L1246.39 -47.155C1275.46 -11.5392 1305.52 25.2857 1343.3 25.2857C1381.08 25.2857 1411.14 -11.5129 1440.21 -47.155L1441.19 -43.7643C1411.92 -7.88566 1381.63 29.2284 1343.33 29.2284Z" fill="#00D2FE" fill-opacity="0.66"/>
<path d="M1002.75 8.98929L1002.06 5.30943C1019.05 -8.49005 1035.12 -28.1247 1050.6 -47.26L1051.59 -43.8956C1036 -24.6551 1019.89 -4.94161 1002.75 8.98929Z" fill="#00D2FE" fill-opacity="0.66"/>
<path d="M1343.33 2.78602C1312.88 2.78602 1287.97 -20.7388 1267.62 -43.7379L1268.54 -47.2075C1288.68 -24.4712 1313.31 -1.15669 1343.33 -1.15669C1373.34 -1.15669 1397.93 -24.4712 1418.11 -47.2075L1419.03 -43.7379C1398.68 -20.7388 1373.77 2.78602 1343.33 2.78602Z" fill="#00D2FE" fill-opacity="0.66"/>
</g>
<g clip-path="url(#clip1_115_2070)">
<path d="M604.501 802.578C584.371 779.815 559.738 756.527 529.727 756.527C499.716 756.527 475.045 779.815 454.94 802.578L454.024 799.108C474.371 776.109 499.283 752.584 529.727 752.584C560.171 752.584 585.07 776.109 605.417 799.108L604.501 802.578Z" fill="#FFA417" fill-opacity="0.66"/>
<path d="M214.874 802.578C194.744 779.815 170.111 756.527 140.1 756.527C110.089 756.527 85.4182 779.815 65.3131 802.578L64.3975 799.108C84.7442 776.109 109.656 752.584 140.1 752.584C170.544 752.584 195.443 776.109 215.79 799.108L214.874 802.578Z" fill="#FFA417" fill-opacity="0.66"/>
<path d="M626.641 802.525C597.57 766.909 567.495 730.085 529.727 730.085C491.958 730.085 461.883 766.883 432.8 802.525L431.833 799.134C461.082 763.256 491.424 726.142 529.752 726.142C568.08 726.142 598.346 763.256 627.671 799.134L626.641 802.525Z" fill="#FFA417" fill-opacity="0.66"/>
<path d="M237.014 802.525C207.931 766.909 177.868 730.085 140.1 730.085C102.331 730.085 72.2561 766.883 43.173 802.525L42.2065 799.134C71.455 763.256 101.797 726.142 140.125 726.142C178.453 726.142 208.706 763.256 238.044 799.134L237.014 802.525Z" fill="#FFA417" fill-opacity="0.66"/>
<path d="M648.832 802.578C641.354 794.114 633.877 784.941 626.641 776.083C597.571 740.414 567.546 703.616 529.727 703.616C491.907 703.616 461.883 740.414 432.749 776.083C425.526 784.941 418.049 794.114 410.559 802.578L409.643 799.108C417.095 790.671 424.56 781.524 431.783 772.692C461.031 736.813 491.373 699.699 529.701 699.699C568.03 699.699 598.295 736.813 627.62 772.692C634.83 781.55 642.295 790.671 649.747 799.108L648.832 802.578Z" fill="#FFA417" fill-opacity="0.66"/>
<path d="M259.205 802.578C251.727 794.114 244.25 784.941 237.014 776.083C207.943 740.414 177.868 703.616 140.1 703.616C102.331 703.616 72.2562 740.414 43.1731 776.056C35.9501 784.914 28.4726 794.088 20.9825 802.552L20.0669 799.082C27.5189 790.645 34.9836 781.497 42.2067 772.666C71.4551 736.787 101.797 699.673 140.125 699.673C178.453 699.673 208.719 736.787 238.044 772.666C245.254 781.497 252.719 790.645 260.171 799.082L259.205 802.578Z" fill="#FFA417" fill-opacity="0.66"/>
<path d="M675.816 802.683C658.547 788.726 642.333 768.854 626.654 749.64C597.571 714.13 567.546 677.331 529.727 677.331C491.908 677.331 461.883 714.13 432.749 749.64C417.07 768.854 400.843 788.726 383.574 802.683L382.875 799.003C400.055 785.098 416.218 765.385 431.834 746.249C461.082 710.345 491.424 673.257 529.752 673.257C568.081 673.257 598.346 710.371 627.671 746.249C643.287 765.385 659.463 785.177 676.567 799.003L675.816 802.683Z" fill="#FFA417" fill-opacity="0.66"/>
<path d="M286.202 802.683C268.92 788.726 252.706 768.855 237.014 749.64C207.943 714.13 177.868 677.331 140.1 677.331C102.331 677.331 72.2562 714.13 43.1732 749.772C27.5952 768.723 11.4831 788.463 -5.6717 802.394L-6.3584 798.74C10.6438 784.915 26.705 765.254 42.2067 746.171C71.4551 710.266 101.797 673.178 140.125 673.178C178.453 673.178 208.719 710.292 238.044 746.171C253.66 765.306 269.836 785.099 286.94 798.924L286.202 802.683Z" fill="#FFA417" fill-opacity="0.66"/>
<path d="M334.907 796.191C296.604 796.191 266.313 759.077 236.988 723.198C207.918 687.582 177.843 650.731 140.074 650.731C102.306 650.731 72.2308 687.53 43.1477 723.198C27.5952 742.281 11.4831 762.02 -5.6717 775.951L-6.3584 772.271C10.6438 758.472 26.705 738.811 42.2067 719.702C71.4551 683.797 101.797 646.683 140.125 646.683C178.453 646.683 208.719 683.797 238.044 719.702C267.114 755.318 297.177 792.143 334.958 792.143C372.739 792.143 402.802 755.344 431.885 719.702C461.133 683.797 491.475 646.683 529.803 646.683V650.626C492.022 650.626 461.96 687.424 432.877 723.093C403.501 759.077 373.21 796.191 334.907 796.191Z" fill="#FFA417" fill-opacity="0.66"/>
<path d="M334.907 769.748C296.604 769.748 266.313 732.634 236.988 696.756C207.918 661.114 177.843 624.289 140.074 624.289C102.306 624.289 72.2308 661.087 43.1477 696.756C27.5952 715.838 11.4831 735.578 -5.6717 749.509L-6.3584 745.829C10.6438 732.03 26.705 712.369 42.2067 693.26C71.4551 657.355 101.797 620.241 140.125 620.241C178.453 620.241 208.719 657.355 238.044 693.26C267.114 728.875 297.177 765.7 334.958 765.7C372.739 765.7 402.802 728.902 431.885 693.26C461.133 657.355 491.475 620.241 529.803 620.241V624.183C492.022 624.183 461.96 660.982 432.877 696.65C403.501 732.529 373.21 769.748 334.907 769.748Z" fill="#FFA417" fill-opacity="0.66"/>
<path d="M334.907 743.306C296.604 743.306 266.313 706.192 236.988 670.313C207.918 634.671 177.843 597.846 140.074 597.846C102.306 597.846 72.2308 634.645 43.1477 670.287C27.5952 689.396 11.4831 709.136 -5.6717 723.066L-6.3584 719.387C10.6438 705.561 26.705 685.926 42.2067 666.817C71.4551 630.938 101.797 593.824 140.125 593.824C178.453 593.824 208.719 630.938 238.044 666.817C267.114 702.459 297.177 739.284 334.958 739.284C372.739 739.284 402.802 702.485 431.885 666.817C461.133 630.938 491.475 593.824 529.803 593.824V597.767C492.022 597.767 461.96 634.566 432.877 670.234C403.501 706.244 373.21 743.306 334.907 743.306Z" fill="#FFA417" fill-opacity="0.66"/>
<path d="M334.907 716.758C296.604 716.758 266.313 679.644 236.988 643.739C207.918 608.123 177.843 571.299 140.074 571.299C102.306 571.299 72.2308 608.097 43.1477 643.739C27.5952 662.927 11.4831 682.588 -5.6717 696.598L-6.3584 692.944C10.6438 679.118 26.705 659.457 42.2067 640.375C71.4551 604.496 101.797 567.382 140.125 567.382C178.453 567.382 208.719 604.496 238.044 640.375C267.114 675.991 297.177 712.842 334.958 712.842C372.739 712.842 402.802 676.043 431.885 640.375C461.133 604.496 491.475 567.382 529.803 567.382V571.325C492.022 571.325 461.96 608.123 432.877 643.765C403.501 679.749 373.21 716.758 334.907 716.758Z" fill="#FFA417" fill-opacity="0.66"/>
<path d="M334.907 690.473C296.604 690.473 266.313 653.359 236.988 617.454C207.918 581.838 177.843 545.014 140.074 545.014C102.306 545.014 72.2308 581.812 43.1477 617.454C27.5952 636.484 11.4831 656.303 -5.6717 670.155L-6.3584 666.502C10.6438 652.676 26.705 633.015 42.2067 613.932C71.4551 578.054 101.797 540.939 140.125 540.939C178.453 540.939 208.719 578.054 238.044 613.932C267.114 649.548 297.177 686.399 334.958 686.399C372.739 686.399 402.802 649.601 431.885 613.932C461.133 578.054 491.475 540.939 529.803 540.939V544.882C492.022 544.882 461.96 581.681 432.877 617.323C403.501 653.307 373.21 690.473 334.907 690.473Z" fill="#FFA417" fill-opacity="0.66"/>
<path d="M334.907 663.952C296.604 663.952 266.313 626.838 236.988 590.96C207.918 555.344 177.843 518.493 140.074 518.493C102.306 518.493 72.2308 555.291 43.1477 590.96C27.5952 610.042 11.4831 629.782 -5.6717 643.713L-6.3584 640.059C10.6438 626.234 26.705 606.573 42.2067 587.49C71.4551 551.585 101.797 514.471 140.125 514.471C178.453 514.471 208.719 551.585 238.044 587.49C267.114 623.106 297.177 659.931 334.958 659.931C372.739 659.931 402.802 623.132 431.885 587.49C461.133 551.585 491.475 514.471 529.803 514.471V518.414C492.022 518.414 461.96 555.212 432.877 590.881C403.501 626.838 373.21 663.952 334.907 663.952Z" fill="#FFA417" fill-opacity="0.66"/>
<path d="M334.907 637.51C296.604 637.51 266.313 600.396 236.988 564.517C207.918 528.901 177.843 492.05 140.074 492.05C102.306 492.05 72.2308 528.849 43.1477 564.517C27.5952 583.6 11.4831 603.34 -5.6717 617.27L-6.3584 613.591C10.6438 599.791 26.705 580.13 42.2067 561.021C71.4551 525.116 101.797 488.002 140.125 488.002C178.453 488.002 208.719 525.116 238.044 561.021C267.114 596.637 297.177 633.462 334.958 633.462C372.739 633.462 402.802 596.663 431.885 561.021C461.133 525.116 491.475 488.002 529.803 488.002V491.945C492.022 491.945 461.96 528.743 432.877 564.412C403.501 600.396 373.21 637.51 334.907 637.51Z" fill="#FFA417" fill-opacity="0.66"/>
<path d="M334.907 611.067C296.604 611.067 266.313 573.953 236.988 538.075C207.918 502.432 177.843 465.607 140.074 465.607C102.306 465.607 72.2308 502.406 43.1477 538.075C27.5952 557.157 11.4831 576.897 -5.6717 590.828L-6.3584 587.148C10.6438 573.322 26.705 553.688 42.2067 534.579C71.4551 498.7 101.797 461.586 140.125 461.586C178.453 461.586 208.719 498.7 238.044 534.579C267.114 570.221 297.177 607.046 334.958 607.046C372.739 607.046 402.802 570.247 431.885 534.579C461.133 498.7 491.475 461.586 529.803 461.586V465.529C492.022 465.529 461.96 502.327 432.877 537.996C403.501 573.953 373.21 611.067 334.907 611.067Z" fill="#FFA417" fill-opacity="0.66"/>
<path d="M334.907 584.625C296.604 584.625 266.313 547.511 236.988 511.606C207.918 475.99 177.843 439.165 140.074 439.165C102.306 439.165 72.2563 475.99 43.1732 511.737C27.5952 530.715 11.4831 550.455 -5.6717 564.307L-6.3584 560.627C10.6438 546.801 26.705 527.14 42.2067 508.057C71.4551 472.179 101.797 435.065 140.125 435.065C178.453 435.065 208.719 472.179 238.044 508.057C267.114 543.699 297.177 580.524 334.958 580.524C372.739 580.524 402.802 543.726 431.885 508.057C461.133 472.179 491.475 435.065 529.803 435.065V439.007C492.022 439.007 461.96 475.806 432.877 511.448C403.501 547.511 373.21 584.625 334.907 584.625Z" fill="#FFA417" fill-opacity="0.66"/>
<path d="M334.907 558.182C296.604 558.182 266.313 521.068 236.988 485.163C207.918 449.547 177.843 412.723 140.074 412.723C102.306 412.723 72.2308 449.521 43.1477 485.163C27.5952 504.246 11.4831 523.986 -5.6717 538.022L-6.3584 534.368C10.6438 520.543 26.705 500.882 42.2067 481.799C71.4551 445.92 101.797 408.806 140.125 408.806C178.453 408.806 208.719 445.92 238.044 481.799C267.114 517.415 297.177 554.266 334.958 554.266C372.739 554.266 402.802 517.467 431.885 481.799C461.133 445.92 491.475 408.806 529.803 408.806V412.749C492.022 412.749 461.96 449.547 432.877 485.19C403.501 521.068 373.21 558.182 334.907 558.182Z" fill="#FFA417" fill-opacity="0.66"/>
<path d="M334.907 531.74C296.604 531.74 266.313 494.626 236.988 458.721C207.918 423.105 177.843 386.28 140.074 386.28C102.306 386.28 72.2308 423.079 43.1477 458.721C27.5952 477.804 11.4831 497.544 -5.6717 511.474L-6.3584 507.821C10.6438 493.995 26.705 474.334 42.2067 455.251C71.4551 419.347 101.797 382.259 140.125 382.259C178.453 382.259 208.719 419.373 238.044 455.251C267.114 490.867 297.177 527.718 334.958 527.718C372.739 527.718 402.802 490.92 431.885 455.251C461.133 419.373 491.475 382.259 529.803 382.259V386.201C492.022 386.201 461.96 423 432.877 458.642C403.501 494.626 373.21 531.74 334.907 531.74Z" fill="#FFA417" fill-opacity="0.66"/>
<path d="M334.907 505.271C296.604 505.271 266.313 468.157 236.988 432.279C207.918 396.663 177.843 359.812 140.074 359.812C102.306 359.812 72.2308 396.61 43.1477 432.279C27.5952 451.282 11.4831 471.101 -5.6717 485.032L-6.3584 481.352C10.6438 467.553 26.705 447.892 42.2067 428.783C71.4551 392.878 101.797 355.764 140.125 355.764C178.453 355.764 208.719 392.878 238.044 428.783C267.063 464.425 297.126 501.223 334.907 501.223C372.688 501.223 402.751 464.425 431.834 428.783C461.082 392.878 491.424 355.764 529.752 355.764V359.706C491.971 359.706 461.909 396.505 432.826 432.173C403.501 468.157 373.21 505.271 334.907 505.271Z" fill="#FFA417" fill-opacity="0.66"/>
<path d="M334.907 478.829C296.604 478.829 266.313 441.715 236.988 405.836C207.918 370.22 177.843 333.369 140.074 333.369C102.306 333.369 72.2308 370.168 43.1477 405.836C27.5952 424.998 11.4831 444.659 -5.6717 458.59L-6.3584 454.91C10.6438 441.11 26.705 421.449 42.2067 402.34C71.4551 366.435 101.797 329.321 140.125 329.321C178.453 329.321 208.719 366.435 238.044 402.34C267.063 438.14 297.126 474.939 334.907 474.939C372.688 474.939 402.751 438.14 431.834 402.498C461.082 366.593 491.424 329.479 529.752 329.479V333.422C491.971 333.422 461.909 370.22 432.826 405.889C403.501 441.715 373.21 478.829 334.907 478.829Z" fill="#FFA417" fill-opacity="0.66"/>
<path d="M334.907 452.386C296.604 452.386 266.313 415.272 236.988 379.368C207.918 343.752 177.843 306.927 140.074 306.927C102.306 306.927 72.2308 343.725 43.1477 379.368C27.5952 398.477 11.4831 418.216 -5.6717 432.147L-6.3584 428.467C10.6438 414.642 26.705 395.007 42.2067 375.898C71.4551 340.019 101.797 302.905 140.125 302.905C178.453 302.905 208.719 340.019 238.044 375.898C267.114 411.54 297.177 448.365 334.958 448.365C372.739 448.365 402.802 411.566 431.885 375.898C461.133 340.019 491.475 302.905 529.803 302.905V306.848C492.022 306.848 461.96 343.647 432.877 379.289C403.501 415.272 373.21 452.386 334.907 452.386Z" fill="#FFA417" fill-opacity="0.66"/>
<path d="M334.907 425.944C296.604 425.944 266.313 388.83 236.988 352.925C207.943 317.23 177.868 280.432 140.1 280.432C102.331 280.432 72.2563 317.23 43.1732 352.872C27.5952 372.034 11.4831 391.747 -5.6717 405.705L-6.3584 402.025C10.6438 388.199 26.705 368.538 42.2067 349.455C71.4551 313.577 101.797 276.463 140.125 276.463C178.453 276.463 208.719 313.577 238.044 349.455C267.114 385.071 297.177 421.922 334.958 421.922C372.739 421.922 402.802 385.124 431.885 349.455C461.133 313.577 491.475 276.463 529.803 276.463V280.432C492.022 280.432 461.96 317.23 432.877 352.872C403.501 388.83 373.21 425.944 334.907 425.944Z" fill="#FFA417" fill-opacity="0.66"/>
<path d="M334.907 399.501C296.604 399.501 266.313 362.387 236.988 326.483C207.943 290.946 177.868 254.147 140.1 254.147C102.331 254.147 72.2563 290.946 43.1732 326.588C27.5952 345.565 11.4831 365.305 -5.6717 379.236L-6.3584 375.582C10.6438 361.757 26.705 342.096 42.2067 323.013C71.4551 287.134 101.797 250.02 140.125 250.02C178.453 250.02 208.719 287.134 238.044 323.013C267.114 358.629 297.177 395.48 334.958 395.48C372.739 395.48 402.802 358.681 431.885 323.013C461.133 287.134 491.475 250.02 529.803 250.02V254.147C492.022 254.147 461.96 290.946 432.877 326.588C403.501 362.387 373.21 399.501 334.907 399.501Z" fill="#FFA417" fill-opacity="0.66"/>
<path d="M334.907 373.033C296.604 373.033 266.313 335.945 236.988 300.04C207.918 264.424 177.843 227.573 140.074 227.573C102.306 227.573 72.2308 264.372 43.1477 300.04C27.5952 319.123 11.4831 338.863 -5.6717 352.793L-6.3584 349.14C10.6438 335.314 26.705 315.653 42.2067 296.57C71.4551 260.666 101.797 223.552 140.125 223.552C178.453 223.552 208.719 260.666 238.044 296.57C267.114 332.186 297.177 369.011 334.958 369.011C372.739 369.011 402.802 332.213 431.885 296.57C461.133 260.666 491.475 223.552 529.803 223.552V227.494C492.022 227.494 461.96 264.293 432.877 299.961C403.501 335.945 373.21 373.033 334.907 373.033Z" fill="#FFA417" fill-opacity="0.66"/>
<path d="M334.907 346.59C296.604 346.59 266.313 309.476 236.988 273.598C207.918 237.982 177.843 201.131 140.074 201.131C102.306 201.131 72.2308 237.929 43.1477 273.598C27.5952 292.68 11.4831 312.42 -5.6717 326.351L-6.3584 322.671C10.6438 308.872 26.705 289.211 42.2067 270.102C71.4551 234.197 101.797 197.083 140.125 197.083C178.453 197.083 208.719 234.197 238.044 270.102C267.114 305.718 297.177 342.542 334.958 342.542C372.739 342.542 402.802 305.744 431.885 270.102C461.133 234.197 491.475 197.083 529.803 197.083V201.025C492.022 201.025 461.96 237.824 432.877 273.492C403.501 309.476 373.21 346.59 334.907 346.59Z" fill="#FFA417" fill-opacity="0.66"/>
<path d="M334.907 320.148C296.604 320.148 266.313 283.034 236.988 247.155C207.918 211.513 177.843 174.688 140.074 174.688C102.306 174.688 72.2308 211.487 43.1477 247.155C27.5952 266.238 11.4831 285.978 -5.6717 299.909L-6.3584 296.203C10.6438 282.403 26.705 262.742 42.2067 243.633C71.4551 207.754 101.797 170.64 140.125 170.64C178.453 170.64 208.719 207.754 238.044 243.659C267.114 279.275 297.177 316.1 334.958 316.1C372.739 316.1 402.802 279.301 431.885 243.659C461.133 207.754 491.475 170.64 529.803 170.64V174.583C492.022 174.583 461.96 211.382 432.877 247.05C403.501 283.06 373.21 320.148 334.907 320.148Z" fill="#FFA417" fill-opacity="0.66"/>
<path d="M334.907 293.705C296.604 293.705 266.313 256.591 236.988 220.687C207.918 185.071 177.843 148.246 140.074 148.246C102.306 148.246 72.2308 185.044 43.1477 220.687C27.5952 239.796 11.4831 259.535 -5.6717 273.466L-6.3584 269.918C10.6438 256.092 26.705 236.457 42.2067 217.348C71.4551 181.47 101.797 144.356 140.125 144.356C178.453 144.356 208.719 181.47 238.044 217.348C267.114 252.99 297.177 289.815 334.958 289.815C372.739 289.815 402.802 253.017 431.885 217.348C461.133 181.47 491.475 144.356 529.803 144.356V148.298C492.022 148.298 461.96 185.097 432.877 220.739C403.501 256.591 373.21 293.705 334.907 293.705Z" fill="#FFA417" fill-opacity="0.66"/>
<path d="M334.907 267.289C296.604 267.289 266.313 230.175 236.988 194.27C207.918 158.654 177.843 121.83 140.074 121.83C102.306 121.83 72.2308 158.628 43.1477 194.27C27.5952 213.327 11.4831 233.119 -5.6717 246.997L-6.3584 243.344C10.6438 229.518 26.705 209.857 42.2067 190.774C71.4551 154.896 101.797 117.782 140.125 117.782C178.453 117.782 208.719 154.896 238.044 190.774C267.114 226.39 297.177 263.241 334.958 263.241C372.739 263.241 402.802 226.443 431.885 190.774C461.133 154.896 491.475 117.782 529.803 117.782V121.724C492.022 121.724 461.96 158.523 432.877 194.165C403.501 230.149 373.21 267.289 334.907 267.289Z" fill="#FFA417" fill-opacity="0.66"/>
<path d="M334.907 240.821C296.604 240.821 266.313 203.707 236.988 167.802C207.918 132.186 177.843 95.3609 140.074 95.3609C102.306 95.3609 72.2308 132.16 43.1477 167.802C27.5952 186.884 11.4831 206.624 -5.6717 220.555L-6.3584 216.901C10.6438 203.076 26.705 183.415 42.2067 164.332C71.4551 128.453 101.797 91.3394 140.125 91.3394C178.453 91.3394 208.719 128.453 238.044 164.332C267.114 199.948 297.177 236.799 334.958 236.799C372.739 236.799 402.802 200 431.885 164.332C461.133 128.453 491.475 91.3394 529.803 91.3394V95.2821C492.022 95.2821 461.96 132.081 432.877 167.723C403.501 203.707 373.21 240.821 334.907 240.821Z" fill="#FFA417" fill-opacity="0.66"/>
<path d="M334.907 214.352C296.604 214.352 266.313 177.238 236.988 141.359C207.918 105.743 177.843 68.8922 140.074 68.8922C102.306 68.8922 72.2308 105.691 43.1477 141.359C27.5952 160.442 11.4831 180.182 -5.6717 194.113L-6.3584 190.459C10.6438 176.633 26.705 156.972 42.2067 137.89C71.4551 101.985 101.797 64.8706 140.125 64.8706C178.453 64.8706 208.719 101.985 238.044 137.89C267.114 173.505 297.177 210.33 334.958 210.33C372.739 210.33 402.802 173.532 431.885 137.89C461.133 101.985 491.475 64.8706 529.803 64.8706V68.8133C492.022 68.8133 461.96 105.612 432.877 141.28C403.501 177.238 373.21 214.352 334.907 214.352Z" fill="#FFA417" fill-opacity="0.66"/>
<path d="M334.907 187.909C296.604 187.909 266.313 150.795 236.988 114.917C207.918 79.3009 177.843 42.4497 140.074 42.4497C102.306 42.4497 72.2563 79.3009 43.1732 114.838C27.5952 133.999 11.4831 153.739 -5.6717 167.67L-6.3584 163.99C10.6438 150.191 26.705 130.53 42.2067 111.421C71.4551 75.5159 101.797 38.4019 140.125 38.4019C178.453 38.4019 208.719 75.5159 238.044 111.421C267.114 147.037 297.177 183.862 334.958 183.862C372.739 183.862 402.802 147.063 431.885 111.421C461.133 75.5159 491.475 38.4019 529.803 38.4019V42.3446C492.022 42.3446 461.96 79.1432 432.877 114.812C403.501 150.795 373.21 187.909 334.907 187.909Z" fill="#FFA417" fill-opacity="0.66"/>
<path d="M334.907 161.467C296.604 161.467 266.313 124.353 236.988 88.4744C207.943 52.8323 177.868 16.0074 140.1 16.0074C102.331 16.0074 72.2562 52.8323 43.1732 88.5532C27.5952 107.557 11.4831 127.297 -5.6717 141.123L-6.3584 137.443C10.6438 123.643 26.705 103.982 42.2067 84.8734C71.506 49.1261 101.797 12.0647 140.1 12.0647C178.403 12.0647 208.694 49.1787 238.018 85.0837C267.089 120.699 297.151 157.524 334.932 157.524C372.714 157.524 402.776 120.726 431.859 85.0837C461.108 49.1787 491.45 12.0647 529.778 12.0647V16.0074C491.996 16.0074 461.934 52.806 432.851 88.4744C403.501 124.353 373.21 161.467 334.907 161.467Z" fill="#FFA417" fill-opacity="0.66"/>
<path d="M334.907 135.025C296.604 135.025 266.313 97.9106 236.988 62.0056C207.943 26.3898 177.868 -10.4351 140.1 -10.4351C102.331 -10.4351 72.2563 26.3636 43.1732 62.0056C27.5952 81.1146 11.4831 100.854 -5.6717 114.838L-6.3584 111.158C10.6438 97.3323 26.705 77.6976 42.2067 58.5886C71.4551 22.71 101.797 -14.4041 140.125 -14.4041C178.453 -14.4041 208.719 22.71 238.044 58.5886C267.114 94.2307 297.177 131.056 334.958 131.056C372.739 131.056 402.802 94.257 431.885 58.5886C461.133 22.71 491.475 -14.4041 529.803 -14.4041V-10.4613C492.022 -10.4613 461.96 26.3373 432.877 61.9794C403.501 97.9106 373.21 135.025 334.907 135.025Z" fill="#FFA417" fill-opacity="0.66"/>
<path d="M334.907 108.582C296.604 108.582 266.313 71.4683 236.988 35.5633C207.943 -0.0524659 177.868 -36.8774 140.1 -36.8774C102.331 -36.8774 72.2563 -0.0524659 43.1732 35.5633C27.5952 54.646 11.4831 74.3859 -5.6717 88.3168L-6.3584 84.6632C10.6438 70.8374 26.705 51.1765 42.2067 32.0938C71.4551 -3.78489 101.797 -40.8989 140.125 -40.8989C178.453 -40.8989 208.719 -3.78489 238.044 32.0938C267.114 67.7096 297.177 104.561 334.958 104.561C372.739 104.561 402.802 67.7621 431.885 32.0938C461.133 -3.78489 491.475 -40.8989 529.803 -40.8989V-36.9562C492.022 -36.9562 461.96 -0.157602 432.877 35.4845C403.501 71.4683 373.21 108.582 334.907 108.582Z" fill="#FFA417" fill-opacity="0.66"/>
<path d="M334.907 82.1398C296.604 82.1398 266.313 44.9994 236.988 9.1208C221.398 -10.0145 205.248 -29.728 188.118 -43.6326L188.805 -47.3125C206.087 -33.3553 222.301 -13.4841 237.98 5.73007C267.063 41.2407 297.126 78.197 334.907 78.197C372.688 78.197 402.751 41.3984 431.834 5.73007C447.513 -13.4841 463.727 -33.3553 481.073 -47.3125L481.772 -43.6326C464.541 -29.728 448.416 -10.0145 432.749 9.1208C403.501 45.0257 373.21 82.1398 334.907 82.1398Z" fill="#FFA417" fill-opacity="0.66"/>
<path d="M-5.6717 61.8743L-6.3584 58.2207C10.6438 44.3949 26.705 24.7339 42.2067 5.65123C57.7084 -13.4315 74.1383 -33.3553 91.3822 -47.3125L92.0816 -43.6326C74.9395 -29.728 58.7893 -10.0145 43.1732 9.12081C27.5571 28.2561 11.4831 47.9433 -5.6717 61.8743Z" fill="#FFA417" fill-opacity="0.66"/>
<path d="M334.907 55.6709C296.604 55.6709 266.313 18.5569 236.988 -17.3218C229.778 -26.1797 222.313 -35.3005 214.849 -43.6065L215.764 -47.0761C223.254 -38.6124 230.732 -29.439 237.968 -20.5811C267.063 14.9559 297.126 51.7545 334.907 51.7545C372.688 51.7545 402.751 14.9559 431.834 -20.7125C439.057 -29.5705 446.534 -38.7438 454.024 -47.2075L454.94 -43.7379C447.475 -35.3005 440.023 -26.1535 432.8 -17.4532C403.501 18.5569 373.21 55.6709 334.907 55.6709Z" fill="#FFA417" fill-opacity="0.66"/>
<path d="M-5.6717 35.4318L-6.3584 31.752C10.6438 17.9525 26.705 -1.70851 42.194 -20.8175C49.4298 -29.6755 56.9072 -38.8488 64.3973 -47.3125L65.3129 -43.8429C57.8482 -35.4055 50.3835 -26.2584 43.1732 -17.5582C27.5952 1.81365 11.4831 21.5009 -5.6717 35.4318Z" fill="#FFA417" fill-opacity="0.66"/>
<path d="M334.907 29.2284C296.604 29.2284 266.313 -7.88566 236.988 -43.7643L237.967 -47.155C267.038 -11.5392 297.1 25.2857 334.881 25.2857C372.663 25.2857 402.725 -11.5129 431.795 -47.155L432.775 -43.7643C403.501 -7.88566 373.21 29.2284 334.907 29.2284Z" fill="#FFA417" fill-opacity="0.66"/>
<path d="M-5.6717 8.98929L-6.3584 5.30943C10.6311 -8.49005 26.705 -28.1247 42.1813 -47.26L43.1732 -43.8956C27.5825 -24.6551 11.4704 -4.94161 -5.6717 8.98929Z" fill="#FFA417" fill-opacity="0.66"/>
<path d="M334.907 2.78602C304.463 2.78602 279.551 -20.7388 259.205 -43.7379L260.12 -47.2075C280.263 -24.4712 304.896 -1.15669 334.907 -1.15669C364.919 -1.15669 389.513 -24.4712 409.694 -47.2075L410.61 -43.7379C390.263 -20.7388 365.351 2.78602 334.907 2.78602Z" fill="#FFA417" fill-opacity="0.66"/>
</g>
<g clip-path="url(#clip2_115_2070)">
<path d="M402.41 802.578C422.59 779.815 447.284 756.527 477.37 756.527C507.457 756.527 532.189 779.815 552.344 802.578L553.262 799.108C532.864 776.109 507.89 752.584 477.37 752.584C446.851 752.584 421.889 776.109 401.492 799.108L402.41 802.578Z" fill="#3CD404" fill-opacity="0.66"/>
<path d="M793.008 802.578C813.189 779.815 837.883 756.527 867.969 756.527C898.055 756.527 922.787 779.815 942.942 802.578L943.86 799.108C923.463 776.109 898.489 752.584 867.969 752.584C837.449 752.584 812.488 776.109 792.09 799.108L793.008 802.578Z" fill="#3CD404" fill-opacity="0.66"/>
<path d="M380.215 802.525C409.358 766.909 439.508 730.085 477.371 730.085C515.233 730.085 545.383 766.883 574.539 802.525L575.508 799.134C546.186 763.256 515.769 726.142 477.345 726.142C438.921 726.142 408.58 763.256 379.182 799.134L380.215 802.525Z" fill="#3CD404" fill-opacity="0.66"/>
<path d="M770.813 802.525C799.969 766.909 830.106 730.085 867.969 730.085C905.832 730.085 935.982 766.883 965.138 802.525L966.106 799.134C936.785 763.256 906.367 726.142 867.944 726.142C829.52 726.142 799.191 763.256 769.781 799.134L770.813 802.525Z" fill="#3CD404" fill-opacity="0.66"/>
<path d="M357.969 802.578C365.465 794.114 372.961 784.941 380.215 776.083C409.358 740.414 439.457 703.616 477.371 703.616C515.284 703.616 545.383 740.414 574.59 776.083C581.831 784.941 589.327 794.114 596.836 802.578L597.754 799.108C590.283 790.671 582.8 781.524 575.559 772.692C546.238 736.813 515.82 699.699 477.396 699.699C438.972 699.699 408.631 736.813 379.233 772.692C372.005 781.55 364.522 790.671 357.051 799.108L357.969 802.578Z" fill="#3CD404" fill-opacity="0.66"/>
<path d="M748.568 802.578C756.064 794.114 763.56 784.941 770.814 776.083C799.957 740.414 830.107 703.616 867.969 703.616C905.832 703.616 935.982 740.414 965.138 776.056C972.379 784.914 979.875 794.088 987.384 802.552L988.302 799.082C980.831 790.645 973.348 781.497 966.107 772.666C936.785 736.787 906.368 699.673 867.944 699.673C829.52 699.673 799.179 736.787 769.781 772.666C762.553 781.497 755.07 790.645 747.599 799.082L748.568 802.578Z" fill="#3CD404" fill-opacity="0.66"/>
<path d="M330.917 802.683C348.23 788.726 364.484 768.854 380.203 749.64C409.358 714.13 439.457 677.331 477.371 677.331C515.285 677.331 545.384 714.13 574.591 749.64C590.309 768.854 606.576 788.726 623.889 802.683L624.59 799.003C607.367 785.098 591.163 765.385 575.508 746.249C546.187 710.345 515.769 673.257 477.346 673.257C438.922 673.257 408.581 710.371 379.183 746.249C363.528 765.385 347.312 785.177 330.165 799.003L330.917 802.683Z" fill="#3CD404" fill-opacity="0.66"/>
<path d="M721.503 802.683C738.828 788.726 755.082 768.855 770.814 749.64C799.957 714.13 830.107 677.331 867.969 677.331C905.832 677.331 935.982 714.13 965.138 749.772C980.755 768.723 996.907 788.463 1014.1 802.394L1014.79 798.74C997.748 784.915 981.647 765.254 966.107 746.171C936.785 710.266 906.368 673.178 867.944 673.178C829.52 673.178 799.179 710.292 769.781 746.171C754.126 765.306 737.91 785.099 720.764 798.924L721.503 802.683Z" fill="#3CD404" fill-opacity="0.66"/>
<path d="M672.677 796.191C711.075 796.191 741.441 759.077 770.839 723.198C799.982 687.582 830.132 650.731 867.995 650.731C905.858 650.731 936.008 687.53 965.163 723.198C980.755 742.281 996.907 762.02 1014.1 775.951L1014.79 772.271C997.748 758.472 981.647 738.811 966.107 719.702C936.785 683.797 906.368 646.683 867.944 646.683C829.52 646.683 799.179 683.797 769.781 719.702C740.638 755.318 710.501 792.143 672.626 792.143C634.75 792.143 604.613 755.344 575.457 719.702C546.136 683.797 515.718 646.683 477.294 646.683V650.626C515.17 650.626 545.307 687.424 574.463 723.093C603.912 759.077 634.278 796.191 672.677 796.191Z" fill="#3CD404" fill-opacity="0.66"/>
<path d="M672.677 769.748C711.075 769.748 741.441 732.634 770.839 696.756C799.982 661.114 830.132 624.289 867.995 624.289C905.858 624.289 936.008 661.087 965.163 696.756C980.755 715.838 996.907 735.578 1014.1 749.509L1014.79 745.829C997.748 732.03 981.647 712.369 966.107 693.26C936.785 657.355 906.368 620.241 867.944 620.241C829.52 620.241 799.179 657.355 769.781 693.26C740.638 728.875 710.501 765.7 672.626 765.7C634.75 765.7 604.613 728.902 575.457 693.26C546.136 657.355 515.718 620.241 477.294 620.241V624.183C515.17 624.183 545.307 660.982 574.463 696.65C603.912 732.529 634.278 769.748 672.677 769.748Z" fill="#3CD404" fill-opacity="0.66"/>
<path d="M672.677 743.306C711.075 743.306 741.441 706.192 770.839 670.313C799.982 634.671 830.132 597.846 867.995 597.846C905.858 597.846 936.008 634.645 965.163 670.287C980.755 689.396 996.907 709.136 1014.1 723.066L1014.79 719.387C997.748 705.561 981.647 685.926 966.107 666.817C936.785 630.938 906.368 593.824 867.944 593.824C829.52 593.824 799.179 630.938 769.781 666.817C740.638 702.459 710.501 739.284 672.626 739.284C634.75 739.284 604.613 702.485 575.457 666.817C546.136 630.938 515.718 593.824 477.294 593.824V597.767C515.17 597.767 545.307 634.566 574.463 670.234C603.912 706.244 634.278 743.306 672.677 743.306Z" fill="#3CD404" fill-opacity="0.66"/>
<path d="M672.677 716.758C711.075 716.758 741.441 679.644 770.839 643.739C799.982 608.123 830.132 571.299 867.995 571.299C905.858 571.299 936.008 608.097 965.163 643.739C980.755 662.927 996.907 682.588 1014.1 696.598L1014.79 692.944C997.748 679.118 981.647 659.457 966.107 640.375C936.785 604.496 906.368 567.382 867.944 567.382C829.52 567.382 799.179 604.496 769.781 640.375C740.638 675.991 710.501 712.842 672.626 712.842C634.75 712.842 604.613 676.043 575.457 640.375C546.136 604.496 515.718 567.382 477.294 567.382V571.325C515.17 571.325 545.307 608.123 574.463 643.765C603.912 679.749 634.278 716.758 672.677 716.758Z" fill="#3CD404" fill-opacity="0.66"/>
<path d="M672.677 690.473C711.075 690.473 741.441 653.359 770.839 617.454C799.982 581.838 830.132 545.014 867.995 545.014C905.858 545.014 936.008 581.812 965.163 617.454C980.755 636.484 996.907 656.303 1014.1 670.155L1014.79 666.502C997.748 652.676 981.647 633.015 966.107 613.932C936.785 578.054 906.368 540.939 867.944 540.939C829.52 540.939 799.179 578.054 769.781 613.932C740.638 649.548 710.501 686.399 672.626 686.399C634.75 686.399 604.613 649.601 575.457 613.932C546.136 578.054 515.718 540.939 477.294 540.939V544.882C515.17 544.882 545.307 581.681 574.463 617.323C603.912 653.307 634.278 690.473 672.677 690.473Z" fill="#3CD404" fill-opacity="0.66"/>
<path d="M672.677 663.952C711.075 663.952 741.441 626.838 770.839 590.96C799.982 555.344 830.132 518.493 867.995 518.493C905.858 518.493 936.008 555.291 965.163 590.96C980.755 610.042 996.907 629.782 1014.1 643.713L1014.79 640.059C997.748 626.234 981.647 606.573 966.107 587.49C936.785 551.585 906.368 514.471 867.944 514.471C829.52 514.471 799.179 551.585 769.781 587.49C740.638 623.106 710.501 659.931 672.626 659.931C634.75 659.931 604.613 623.132 575.457 587.49C546.136 551.585 515.718 514.471 477.294 514.471V518.414C515.17 518.414 545.307 555.212 574.463 590.881C603.912 626.838 634.278 663.952 672.677 663.952Z" fill="#3CD404" fill-opacity="0.66"/>
<path d="M672.677 637.51C711.075 637.51 741.441 600.396 770.839 564.517C799.982 528.901 830.132 492.05 867.995 492.05C905.858 492.05 936.008 528.849 965.163 564.517C980.755 583.6 996.907 603.34 1014.1 617.27L1014.79 613.591C997.748 599.791 981.647 580.13 966.107 561.021C936.785 525.116 906.368 488.002 867.944 488.002C829.52 488.002 799.179 525.116 769.781 561.021C740.638 596.637 710.501 633.462 672.626 633.462C634.75 633.462 604.613 596.663 575.457 561.021C546.136 525.116 515.718 488.002 477.294 488.002V491.945C515.17 491.945 545.307 528.743 574.463 564.412C603.912 600.396 634.278 637.51 672.677 637.51Z" fill="#3CD404" fill-opacity="0.66"/>
<path d="M672.677 611.067C711.075 611.067 741.441 573.953 770.839 538.075C799.982 502.432 830.132 465.607 867.995 465.607C905.858 465.607 936.008 502.406 965.163 538.075C980.755 557.157 996.907 576.897 1014.1 590.828L1014.79 587.148C997.748 573.322 981.647 553.688 966.107 534.579C936.785 498.7 906.368 461.586 867.944 461.586C829.52 461.586 799.179 498.7 769.781 534.579C740.638 570.221 710.501 607.046 672.626 607.046C634.75 607.046 604.613 570.247 575.457 534.579C546.136 498.7 515.718 461.586 477.294 461.586V465.529C515.17 465.529 545.307 502.327 574.463 537.996C603.912 573.953 634.278 611.067 672.677 611.067Z" fill="#3CD404" fill-opacity="0.66"/>
<path d="M672.677 584.625C711.075 584.625 741.441 547.511 770.839 511.606C799.982 475.99 830.132 439.165 867.995 439.165C905.858 439.165 935.982 475.99 965.138 511.737C980.755 530.715 996.907 550.455 1014.1 564.307L1014.79 560.627C997.748 546.801 981.647 527.14 966.107 508.057C936.785 472.179 906.368 435.065 867.944 435.065C829.52 435.065 799.179 472.179 769.781 508.057C740.638 543.699 710.501 580.524 672.626 580.524C634.75 580.524 604.613 543.726 575.457 508.057C546.136 472.179 515.718 435.065 477.294 435.065V439.007C515.17 439.007 545.307 475.806 574.463 511.448C603.912 547.511 634.278 584.625 672.677 584.625Z" fill="#3CD404" fill-opacity="0.66"/>
<path d="M672.677 558.182C711.075 558.182 741.441 521.068 770.839 485.163C799.982 449.547 830.132 412.723 867.995 412.723C905.858 412.723 936.008 449.521 965.163 485.163C980.755 504.246 996.907 523.986 1014.1 538.022L1014.79 534.368C997.748 520.543 981.647 500.882 966.107 481.799C936.785 445.92 906.368 408.806 867.944 408.806C829.52 408.806 799.179 445.92 769.781 481.799C740.638 517.415 710.501 554.266 672.626 554.266C634.75 554.266 604.613 517.467 575.457 481.799C546.136 445.92 515.718 408.806 477.294 408.806V412.749C515.17 412.749 545.307 449.547 574.463 485.19C603.912 521.068 634.278 558.182 672.677 558.182Z" fill="#3CD404" fill-opacity="0.66"/>
<path d="M672.677 531.74C711.075 531.74 741.441 494.626 770.839 458.721C799.982 423.105 830.132 386.28 867.995 386.28C905.858 386.28 936.008 423.079 965.163 458.721C980.755 477.804 996.907 497.544 1014.1 511.474L1014.79 507.821C997.748 493.995 981.647 474.334 966.107 455.251C936.785 419.347 906.368 382.259 867.944 382.259C829.52 382.259 799.179 419.373 769.781 455.251C740.638 490.867 710.501 527.718 672.626 527.718C634.75 527.718 604.613 490.92 575.457 455.251C546.136 419.373 515.718 382.259 477.294 382.259V386.201C515.17 386.201 545.307 423 574.463 458.642C603.912 494.626 634.278 531.74 672.677 531.74Z" fill="#3CD404" fill-opacity="0.66"/>
<path d="M672.677 505.271C711.075 505.271 741.441 468.157 770.839 432.279C799.982 396.663 830.132 359.812 867.995 359.812C905.858 359.812 936.008 396.61 965.163 432.279C980.755 451.282 996.907 471.101 1014.1 485.032L1014.79 481.352C997.748 467.553 981.647 447.892 966.107 428.783C936.785 392.878 906.368 355.764 867.944 355.764C829.52 355.764 799.179 392.878 769.781 428.783C740.689 464.425 710.552 501.223 672.677 501.223C634.801 501.223 604.664 464.425 575.508 428.783C546.187 392.878 515.769 355.764 477.345 355.764V359.706C515.221 359.706 545.358 396.505 574.514 432.173C603.912 468.157 634.278 505.271 672.677 505.271Z" fill="#3CD404" fill-opacity="0.66"/>
<path d="M672.677 478.829C711.075 478.829 741.441 441.715 770.839 405.836C799.982 370.22 830.132 333.369 867.995 333.369C905.858 333.369 936.008 370.168 965.163 405.836C980.755 424.998 996.907 444.659 1014.1 458.59L1014.79 454.91C997.748 441.11 981.647 421.449 966.107 402.34C936.785 366.435 906.368 329.321 867.944 329.321C829.52 329.321 799.179 366.435 769.781 402.34C740.689 438.14 710.552 474.939 672.677 474.939C634.801 474.939 604.664 438.14 575.508 402.498C546.187 366.593 515.769 329.479 477.345 329.479V333.422C515.221 333.422 545.358 370.22 574.514 405.889C603.912 441.715 634.278 478.829 672.677 478.829Z" fill="#3CD404" fill-opacity="0.66"/>
<path d="M672.677 452.386C711.075 452.386 741.441 415.272 770.839 379.368C799.982 343.752 830.132 306.927 867.995 306.927C905.858 306.927 936.008 343.725 965.163 379.368C980.755 398.477 996.907 418.216 1014.1 432.147L1014.79 428.467C997.748 414.642 981.647 395.007 966.107 375.898C936.785 340.019 906.368 302.905 867.944 302.905C829.52 302.905 799.179 340.019 769.781 375.898C740.638 411.54 710.501 448.365 672.626 448.365C634.75 448.365 604.613 411.566 575.457 375.898C546.136 340.019 515.718 302.905 477.294 302.905V306.848C515.17 306.848 545.307 343.647 574.463 379.289C603.912 415.272 634.278 452.386 672.677 452.386Z" fill="#3CD404" fill-opacity="0.66"/>
<path d="M672.677 425.944C711.075 425.944 741.441 388.83 770.839 352.925C799.957 317.23 830.107 280.432 867.969 280.432C905.832 280.432 935.982 317.23 965.138 352.872C980.755 372.034 996.907 391.747 1014.1 405.705L1014.79 402.025C997.748 388.199 981.647 368.538 966.107 349.455C936.785 313.577 906.368 276.463 867.944 276.463C829.52 276.463 799.179 313.577 769.781 349.455C740.638 385.071 710.501 421.922 672.626 421.922C634.75 421.922 604.613 385.124 575.457 349.455C546.136 313.577 515.718 276.463 477.294 276.463V280.432C515.17 280.432 545.307 317.23 574.463 352.872C603.912 388.83 634.278 425.944 672.677 425.944Z" fill="#3CD404" fill-opacity="0.66"/>
<path d="M672.677 399.501C711.075 399.501 741.441 362.387 770.839 326.483C799.957 290.946 830.107 254.147 867.969 254.147C905.832 254.147 935.982 290.946 965.138 326.588C980.755 345.565 996.907 365.305 1014.1 379.236L1014.79 375.582C997.748 361.757 981.647 342.096 966.107 323.013C936.785 287.134 906.368 250.02 867.944 250.02C829.52 250.02 799.179 287.134 769.781 323.013C740.638 358.629 710.501 395.48 672.626 395.48C634.75 395.48 604.613 358.681 575.457 323.013C546.136 287.134 515.718 250.02 477.294 250.02V254.147C515.17 254.147 545.307 290.946 574.463 326.588C603.912 362.387 634.278 399.501 672.677 399.501Z" fill="#3CD404" fill-opacity="0.66"/>
<path d="M672.677 373.033C711.075 373.033 741.441 335.945 770.839 300.04C799.982 264.424 830.132 227.573 867.995 227.573C905.858 227.573 936.008 264.372 965.163 300.04C980.755 319.123 996.907 338.863 1014.1 352.793L1014.79 349.14C997.748 335.314 981.647 315.653 966.107 296.57C936.785 260.666 906.368 223.552 867.944 223.552C829.52 223.552 799.179 260.666 769.781 296.57C740.638 332.186 710.501 369.011 672.626 369.011C634.75 369.011 604.613 332.213 575.457 296.57C546.136 260.666 515.718 223.552 477.294 223.552V227.494C515.17 227.494 545.307 264.293 574.463 299.961C603.912 335.945 634.278 373.033 672.677 373.033Z" fill="#3CD404" fill-opacity="0.66"/>
<path d="M672.677 346.59C711.075 346.59 741.441 309.476 770.839 273.598C799.982 237.982 830.132 201.131 867.995 201.131C905.858 201.131 936.008 237.929 965.163 273.598C980.755 292.68 996.907 312.42 1014.1 326.351L1014.79 322.671C997.748 308.872 981.647 289.211 966.107 270.102C936.785 234.197 906.368 197.083 867.944 197.083C829.52 197.083 799.179 234.197 769.781 270.102C740.638 305.718 710.501 342.542 672.626 342.542C634.75 342.542 604.613 305.744 575.457 270.102C546.136 234.197 515.718 197.083 477.294 197.083V201.025C515.17 201.025 545.307 237.824 574.463 273.492C603.912 309.476 634.278 346.59 672.677 346.59Z" fill="#3CD404" fill-opacity="0.66"/>
<path d="M672.677 320.148C711.075 320.148 741.441 283.034 770.839 247.155C799.982 211.513 830.132 174.688 867.995 174.688C905.858 174.688 936.008 211.487 965.163 247.155C980.755 266.238 996.907 285.978 1014.1 299.909L1014.79 296.203C997.748 282.403 981.647 262.742 966.107 243.633C936.785 207.754 906.368 170.64 867.944 170.64C829.52 170.64 799.179 207.754 769.781 243.659C740.638 279.275 710.501 316.1 672.626 316.1C634.75 316.1 604.613 279.301 575.457 243.659C546.136 207.754 515.718 170.64 477.294 170.64V174.583C515.17 174.583 545.307 211.382 574.463 247.05C603.912 283.06 634.278 320.148 672.677 320.148Z" fill="#3CD404" fill-opacity="0.66"/>
<path d="M672.677 293.705C711.075 293.705 741.441 256.591 770.839 220.687C799.982 185.071 830.132 148.246 867.995 148.246C905.858 148.246 936.008 185.044 965.163 220.687C980.755 239.796 996.907 259.535 1014.1 273.466L1014.79 269.918C997.748 256.092 981.647 236.457 966.107 217.348C936.785 181.47 906.368 144.356 867.944 144.356C829.52 144.356 799.179 181.47 769.781 217.348C740.638 252.99 710.501 289.815 672.626 289.815C634.75 289.815 604.613 253.017 575.457 217.348C546.136 181.47 515.718 144.356 477.294 144.356V148.298C515.17 148.298 545.307 185.097 574.463 220.739C603.912 256.591 634.278 293.705 672.677 293.705Z" fill="#3CD404" fill-opacity="0.66"/>
<path d="M672.677 267.289C711.075 267.289 741.441 230.175 770.839 194.27C799.982 158.654 830.132 121.83 867.995 121.83C905.858 121.83 936.008 158.628 965.163 194.27C980.755 213.327 996.907 233.119 1014.1 246.997L1014.79 243.344C997.748 229.518 981.647 209.857 966.107 190.774C936.785 154.896 906.368 117.782 867.944 117.782C829.52 117.782 799.179 154.896 769.781 190.774C740.638 226.39 710.501 263.241 672.626 263.241C634.75 263.241 604.613 226.443 575.457 190.774C546.136 154.896 515.718 117.782 477.294 117.782V121.724C515.17 121.724 545.307 158.523 574.463 194.165C603.912 230.149 634.278 267.289 672.677 267.289Z" fill="#3CD404" fill-opacity="0.66"/>
<path d="M672.677 240.821C711.075 240.821 741.441 203.707 770.839 167.802C799.982 132.186 830.132 95.3609 867.995 95.3609C905.858 95.3609 936.008 132.16 965.163 167.802C980.755 186.884 996.907 206.624 1014.1 220.555L1014.79 216.901C997.748 203.076 981.647 183.415 966.107 164.332C936.785 128.453 906.368 91.3394 867.944 91.3394C829.52 91.3394 799.179 128.453 769.781 164.332C740.638 199.948 710.501 236.799 672.626 236.799C634.75 236.799 604.613 200 575.457 164.332C546.136 128.453 515.718 91.3394 477.294 91.3394V95.2821C515.17 95.2821 545.307 132.081 574.463 167.723C603.912 203.707 634.278 240.821 672.677 240.821Z" fill="#3CD404" fill-opacity="0.66"/>
<path d="M672.677 214.352C711.075 214.352 741.441 177.238 770.839 141.359C799.982 105.743 830.132 68.8922 867.995 68.8922C905.858 68.8922 936.008 105.691 965.163 141.359C980.755 160.442 996.907 180.182 1014.1 194.113L1014.79 190.459C997.748 176.633 981.647 156.972 966.107 137.89C936.785 101.985 906.368 64.8706 867.944 64.8706C829.52 64.8706 799.179 101.985 769.781 137.89C740.638 173.505 710.501 210.33 672.626 210.33C634.75 210.33 604.613 173.532 575.457 137.89C546.136 101.985 515.718 64.8706 477.294 64.8706V68.8133C515.17 68.8133 545.307 105.612 574.463 141.28C603.912 177.238 634.278 214.352 672.677 214.352Z" fill="#3CD404" fill-opacity="0.66"/>
<path d="M672.677 187.909C711.075 187.909 741.441 150.795 770.839 114.917C799.982 79.3009 830.132 42.4497 867.995 42.4497C905.858 42.4497 935.982 79.3009 965.138 114.838C980.755 133.999 996.907 153.739 1014.1 167.67L1014.79 163.99C997.748 150.191 981.647 130.53 966.107 111.421C936.785 75.5159 906.368 38.4019 867.944 38.4019C829.52 38.4019 799.179 75.5159 769.781 111.421C740.638 147.037 710.501 183.862 672.626 183.862C634.75 183.862 604.613 147.063 575.457 111.421C546.136 75.5159 515.718 38.4019 477.294 38.4019V42.3446C515.17 42.3446 545.307 79.1432 574.463 114.812C603.912 150.795 634.278 187.909 672.677 187.909Z" fill="#3CD404" fill-opacity="0.66"/>
<path d="M672.677 161.467C711.075 161.467 741.441 124.353 770.839 88.4744C799.957 52.8323 830.107 16.0074 867.969 16.0074C905.832 16.0074 935.982 52.8323 965.138 88.5532C980.755 107.557 996.907 127.297 1014.1 141.123L1014.79 137.443C997.748 123.643 981.647 103.982 966.107 84.8734C936.734 49.1261 906.368 12.0647 867.969 12.0647C829.571 12.0647 799.205 49.1787 769.807 85.0837C740.664 120.699 710.527 157.524 672.651 157.524C634.775 157.524 604.638 120.726 575.483 85.0837C546.161 49.1787 515.744 12.0647 477.32 12.0647V16.0074C515.195 16.0074 545.333 52.806 574.488 88.4744C603.912 124.353 634.278 161.467 672.677 161.467Z" fill="#3CD404" fill-opacity="0.66"/>
<path d="M672.677 135.025C711.075 135.025 741.441 97.9106 770.839 62.0056C799.957 26.3898 830.107 -10.4351 867.969 -10.4351C905.832 -10.4351 935.982 26.3636 965.138 62.0056C980.755 81.1146 996.907 100.854 1014.1 114.838L1014.79 111.158C997.748 97.3323 981.647 77.6976 966.107 58.5886C936.785 22.71 906.368 -14.4041 867.944 -14.4041C829.52 -14.4041 799.179 22.71 769.781 58.5886C740.638 94.2307 710.501 131.056 672.626 131.056C634.75 131.056 604.613 94.257 575.457 58.5886C546.136 22.71 515.718 -14.4041 477.294 -14.4041V-10.4613C515.17 -10.4613 545.307 26.3373 574.463 61.9794C603.912 97.9106 634.278 135.025 672.677 135.025Z" fill="#3CD404" fill-opacity="0.66"/>
<path d="M672.677 108.582C711.075 108.582 741.441 71.4683 770.839 35.5633C799.957 -0.0524659 830.107 -36.8774 867.969 -36.8774C905.832 -36.8774 935.982 -0.0524659 965.138 35.5633C980.755 54.646 996.907 74.3859 1014.1 88.3168L1014.79 84.6632C997.748 70.8374 981.647 51.1765 966.107 32.0938C936.785 -3.78489 906.368 -40.8989 867.944 -40.8989C829.52 -40.8989 799.179 -3.78489 769.781 32.0938C740.638 67.7096 710.501 104.561 672.626 104.561C634.75 104.561 604.613 67.7621 575.457 32.0938C546.136 -3.78489 515.718 -40.8989 477.294 -40.8989V-36.9562C515.17 -36.9562 545.307 -0.157602 574.463 35.4845C603.912 71.4683 634.278 108.582 672.677 108.582Z" fill="#3CD404" fill-opacity="0.66"/>
<path d="M672.676 82.1398C711.074 82.1398 741.441 44.9994 770.839 9.1208C786.468 -10.0145 802.659 -29.728 819.831 -43.6326L819.143 -47.3125C801.818 -33.3553 785.563 -13.4841 769.845 5.73007C740.689 41.2407 710.552 78.197 672.676 78.197C634.801 78.197 604.663 41.3984 575.508 5.73007C559.789 -13.4841 543.535 -33.3553 526.146 -47.3125L525.445 -43.6326C542.719 -29.728 558.884 -10.0145 574.59 9.1208C603.911 45.0257 634.278 82.1398 672.676 82.1398Z" fill="#3CD404" fill-opacity="0.66"/>
<path d="M1014.1 61.8743L1014.79 58.2207C997.748 44.3949 981.647 24.7339 966.107 5.65123C950.566 -13.4315 934.095 -33.3553 916.809 -47.3125L916.107 -43.6326C933.292 -29.728 949.483 -10.0145 965.138 9.12081C980.793 28.2561 996.907 47.9433 1014.1 61.8743Z" fill="#3CD404" fill-opacity="0.66"/>
<path d="M672.676 55.6709C711.075 55.6709 741.441 18.5569 770.839 -17.3218C778.068 -26.1797 785.551 -35.3005 793.034 -43.6065L792.116 -47.0761C784.607 -38.6124 777.111 -29.439 769.858 -20.5811C740.689 14.9559 710.552 51.7545 672.676 51.7545C634.801 51.7545 604.664 14.9559 575.508 -20.7125C568.267 -29.5705 560.771 -38.7438 553.262 -47.2075L552.344 -43.7379C559.827 -35.3005 567.298 -26.1535 574.539 -17.4532C603.911 18.5569 634.278 55.6709 672.676 55.6709Z" fill="#3CD404" fill-opacity="0.66"/>
<path d="M1014.1 35.4318L1014.79 31.752C997.748 17.9525 981.647 -1.70851 966.12 -20.8175C958.866 -29.6755 951.37 -38.8488 943.861 -47.3125L942.943 -43.8429C950.426 -35.4055 957.91 -26.2584 965.138 -17.5582C980.755 1.81365 996.907 21.5009 1014.1 35.4318Z" fill="#3CD404" fill-opacity="0.66"/>
<path d="M672.676 29.2284C711.074 29.2284 741.441 -7.88566 770.839 -43.7643L769.857 -47.155C740.714 -11.5392 710.577 25.2857 672.702 25.2857C634.826 25.2857 604.689 -11.5129 575.546 -47.155L574.564 -43.7643C603.911 -7.88566 634.278 29.2284 672.676 29.2284Z" fill="#3CD404" fill-opacity="0.66"/>
<path d="M1014.1 8.98929L1014.79 5.30943C997.761 -8.49005 981.647 -28.1247 966.132 -47.26L965.138 -43.8956C980.767 -24.6551 996.92 -4.94161 1014.1 8.98929Z" fill="#3CD404" fill-opacity="0.66"/>
<path d="M672.676 2.78602C703.196 2.78602 728.17 -20.7388 748.567 -43.7379L747.649 -47.2075C727.456 -24.4712 702.762 -1.15669 672.676 -1.15669C642.59 -1.15669 617.934 -24.4712 597.703 -47.2075L596.785 -43.7379C617.182 -20.7388 642.156 2.78602 672.676 2.78602Z" fill="#3CD404" fill-opacity="0.66"/>
</g>
</g>
<defs>
<clipPath id="clip0_115_2070">
<rect width="503.581" height="757" fill="white" transform="translate(1008.42)"/>
</clipPath>
<clipPath id="clip1_115_2070">
<rect width="503.581" height="757" fill="white"/>
</clipPath>
<clipPath id="clip2_115_2070">
<rect width="504.837" height="757" fill="white" transform="matrix(-1 0 0 1 1008.42 0)"/>
</clipPath>
</defs>
</svg>
